<svg xmlns="http://www.w3.org/2000/svg" viewBox="0 0 1600 900" role="img" aria-label="Ilustracion de escena historica">
  <defs>
    <linearGradient id="sky" x1="0" x2="0" y1="0" y2="1">
      <stop offset="0%" stop-color="#f2deba"/>
      <stop offset="100%" stop-color="#d1b07c"/>
    </linearGradient>
    <linearGradient id="ground" x1="0" x2="1" y1="0" y2="0">
      <stop offset="0%" stop-color="#5b3a1d"/>
      <stop offset="100%" stop-color="#8a5a2b"/>
    </linearGradient>
  </defs>

  <rect width="1600" height="900" fill="url(#sky)"/>
  <path d="M0 550C250 500 420 620 640 580C870 540 960 460 1220 510C1370 540 1490 610 1600 560V900H0Z" fill="url(#ground)"/>

  <g fill="#3b2411" fill-opacity="0.65">
    <path d="M220 610h48v170h-48z"/>
    <path d="M320 595h52v185h-52z"/>
    <path d="M1060 620h50v170h-50z"/>
    <path d="M1180 598h54v192h-54z"/>
  </g>

  <g stroke="#f4e4c6" stroke-width="12" stroke-linecap="round" stroke-opacity="0.45">
    <line x1="240" y1="610" x2="240" y2="470"/>
    <line x1="350" y1="595" x2="350" y2="450"/>
    <line x1="1085" y1="620" x2="1085" y2="490"/>
    <line x1="1207" y1="598" x2="1207" y2="465"/>
  </g>

  <g fill="#f4e4c6" fill-opacity="0.4">
    <polygon points="240,470 320,505 240,540"/>
    <polygon points="350,450 430,485 350,520"/>
    <polygon points="1085,490 1160,525 1085,560"/>
    <polygon points="1207,465 1282,500 1207,535"/>
  </g>

  <circle cx="1290" cy="190" r="88" fill="#f8e8c8" fill-opacity="0.6"/>
</svg>
